<svg xmlns="http://www.w3.org/2000/svg" width="45.678" height="26.918" viewBox="0 0 45.678 26.918"><defs><style>.a{fill:#232323;}</style></defs><g transform="translate(0 0)"><path class="a" d="M34.241,44.506A26.412,26.412,0,0,1,11.5,31.536a1.553,1.553,0,0,1,0-1.1c.269-.49,7.265-12.847,22.738-12.847a26.412,26.412,0,0,1,22.738,12.97,1.552,1.552,0,0,1,0,1.1C56.709,32.148,49.713,44.506,34.241,44.506ZM14.193,31.047c1.48,2.325,7.938,11.012,20.047,11.012s18.433-8.687,20.047-11.012c-1.48-2.325-7.938-11.012-20.047-11.012S15.808,28.722,14.193,31.047Z" transform="translate(-11.402 -17.587)"/><path class="a" d="M34.241,42.059c-6.727,0-12.109-4.894-12.109-11.012s5.382-11.012,12.109-11.012,12.109,4.894,12.109,11.012S40.968,42.059,34.241,42.059Zm0-19.577c-5.247,0-9.418,3.793-9.418,8.565s4.171,8.565,9.418,8.565,9.418-3.793,9.418-8.565S39.488,22.482,34.241,22.482Z" transform="translate(-11.402 -17.587)"/><path class="a" d="M34.241,37.165c-3.767,0-6.727-2.692-6.727-6.118a1.352,1.352,0,0,1,2.691,0,3.8,3.8,0,0,0,4.036,3.671,3.687,3.687,0,1,0,0-7.341,1.229,1.229,0,1,1,0-2.447c3.767,0,6.727,2.692,6.727,6.118S38.008,37.165,34.241,37.165Z" transform="translate(-11.402 -17.587)"/></g></svg>