<svg xmlns="http://www.w3.org/2000/svg" width="33.333" height="33.334" viewBox="0 0 33.333 33.334"><defs><style>.a{fill:#fff;fill-rule:evenodd;}</style></defs><path class="a" d="M27.913,23.26c.407.223.678.337.777.513a3.459,3.459,0,0,1-.317,1.962A4.193,4.193,0,0,1,25.5,27.6c-.762.04-.783.593-4.933-1.223s-6.65-6.24-6.847-6.523A8.073,8.073,0,0,1,12.19,15.5a4.643,4.643,0,0,1,1.58-3.4,1.522,1.522,0,0,1,1.125-.478l.793.063c.242.01.592-.117.907.727l1.163,3.125a.765.765,0,0,1,.007.727l-.44.675-.65.7c-.215.2-.44.415-.213.838a12.49,12.49,0,0,0,2.2,2.957,11.261,11.261,0,0,0,3.255,2.182c.407.223.65.2.9-.07l1.373-1.575c.292-.405.567-.325.94-.172ZM20,3.333a16.667,16.667,0,1,1-8.917,30.75l-7.75,2.583,2.583-7.75A16.67,16.67,0,0,1,20,3.333Zm0,3.333A13.333,13.333,0,0,0,9.1,27.687L7.5,32.5l4.813-1.605A13.333,13.333,0,1,0,20,6.667Z" transform="translate(-3.333 -3.333)"/></svg>