<svg xmlns="http://www.w3.org/2000/svg" width="30" height="30" viewBox="0 0 30 30"><defs><style>.a{fill:#fff;}</style></defs><path class="a" d="M8.333,5H31.667A3.333,3.333,0,0,1,35,8.333V31.667A3.333,3.333,0,0,1,31.667,35H8.333A3.333,3.333,0,0,1,5,31.667V8.333A3.333,3.333,0,0,1,8.333,5ZM29.512,15.547A8,8,0,0,0,31.665,13.2a7.726,7.726,0,0,1-2.4.685,4.824,4.824,0,0,0,1.86-2.448,9.911,9.911,0,0,1-2.837,1.078c-2.583-3.133-8.77-.6-7.68,4.058a12.756,12.756,0,0,1-9.2-4.648,4.776,4.776,0,0,0,1.322,5.967,5.123,5.123,0,0,1-1.907-.537A4.475,4.475,0,0,0,14.3,21.81a5.051,5.051,0,0,1-1.907.05A4.416,4.416,0,0,0,16.5,24.987,8.89,8.89,0,0,1,10,26.8a11.669,11.669,0,0,0,7.138,2.053C24.483,28.518,29.405,23.245,29.512,15.547Z" transform="translate(-5 -5)"/></svg>