<svg xmlns="http://www.w3.org/2000/svg" width="30" height="30" viewBox="0 0 30 30"><defs><style>.a{fill:#fff;}</style></defs><path class="a" d="M16.97,26.445,24.789,20,16.97,13.557Zm17.4-16.814a33.138,33.138,0,0,1,.421,4.077q.142,2.568.143,4.481L35,20a60.771,60.771,0,0,1-.634,10.37Q33.8,33.29,31.761,34.1a16.089,16.089,0,0,1-3.979.6q-2.692.194-5.388.2L20,35q-9.438,0-11.761-.906Q6.2,33.288,5.633,30.369a32.743,32.743,0,0,1-.424-4.077q-.131-2.235-.141-4.48L5,20a60.965,60.965,0,0,1,.633-10.37Q6.2,6.712,8.239,5.906A16.029,16.029,0,0,1,12.218,5.3q2.692-.192,5.388-.2L20,5q9.439,0,11.761.9Q33.8,6.71,34.368,9.631Z" transform="translate(-5 -5)"/></svg>