<svg xmlns="http://www.w3.org/2000/svg" width="33.333" height="33.334" viewBox="0 0 33.333 33.334"><defs><style>.a{fill:#fff;}</style></defs><path class="a" d="M13,3.333H27A9.667,9.667,0,0,1,36.667,13V27A9.667,9.667,0,0,1,27,36.667H13A9.667,9.667,0,0,1,3.333,27V13A9.667,9.667,0,0,1,13,3.333Zm-.333,3.333a6,6,0,0,0-6,6V27.333a6,6,0,0,0,6,6H27.333a6,6,0,0,0,6-6V12.667a6,6,0,0,0-6-6Zm16.083,2.5a2.083,2.083,0,1,1-1.473.61A2.083,2.083,0,0,1,28.75,9.167ZM20,11.667a8.333,8.333,0,1,1-5.893,2.441A8.333,8.333,0,0,1,20,11.667ZM20,15a5,5,0,1,0,3.535,1.464A5,5,0,0,0,20,15Z" transform="translate(-3.333 -3.333)"/></svg>