<svg xmlns="http://www.w3.org/2000/svg" width="41.667" height="41.667" viewBox="0 0 41.667 41.667"><path d="M25,23.488a6.667,6.667,0,1,1-4.714,1.953A6.667,6.667,0,0,1,25,23.488ZM33.333,7.925V5.154a12.51,12.51,0,0,1,12.5,12.5H43.063A9.727,9.727,0,0,0,33.333,7.925Zm0,5.562V10.717a6.935,6.935,0,0,1,6.938,6.937H37.5A4.152,4.152,0,0,0,33.333,13.488Zm2.083,6.25H45.833V42.654a4.179,4.179,0,0,1-4.167,4.167H8.333a4.179,4.179,0,0,1-4.167-4.167v-25a4.179,4.179,0,0,1,4.167-4.167h6.6L18.75,9.321h12.5v6.25A4.152,4.152,0,0,1,35.417,19.738ZM25,40.571A10.417,10.417,0,1,0,14.583,30.154,10.42,10.42,0,0,0,25,40.571Z" transform="translate(-4.167 -5.155)"/></svg>