<svg xmlns="http://www.w3.org/2000/svg" width="41.667" height="41.667" viewBox="0 0 41.667 41.667"><path d="M24.833,7A20.833,20.833,0,1,1,4,27.833,20.833,20.833,0,0,1,24.833,7Zm0,4.167a5.208,5.208,0,1,0,3.683,1.525A5.208,5.208,0,0,0,24.833,11.167ZM9,22.681a5.208,5.208,0,1,0,2.6-2.99A5.208,5.208,0,0,0,9,22.681Zm31.681-.01a5.208,5.208,0,1,0-.343,3.945A5.207,5.207,0,0,0,40.677,22.671ZM15.052,41.3a5.209,5.209,0,1,0-2.083-3.4A5.209,5.209,0,0,0,15.052,41.3Zm19.581-.006a5.208,5.208,0,1,0-3.871.92A5.209,5.209,0,0,0,34.633,41.294Zm-9.8-16.586a3.125,3.125,0,1,0,2.21.915A3.125,3.125,0,0,0,24.833,24.708Z" transform="translate(-4 -7)"/></svg>