<svg xmlns="http://www.w3.org/2000/svg" width="30.002" height="30.001" viewBox="0 0 30.002 30.001"><defs><style>.a{fill:#fff;}</style></defs><path class="a" d="M11.038,17.988A25.113,25.113,0,0,0,22.02,28.963l3.667-3.672a1.67,1.67,0,0,1,1.693-.408,19.152,19.152,0,0,0,5.953.947A1.667,1.667,0,0,1,35,27.5V33.33A1.667,1.667,0,0,1,33.333,35,28.333,28.333,0,0,1,5,6.663,1.667,1.667,0,0,1,6.665,5H12.5a1.667,1.667,0,0,1,1.667,1.667,19.1,19.1,0,0,0,.947,5.953,1.667,1.667,0,0,1-.407,1.692Z" transform="translate(-4.998 -4.996)"/></svg>