<svg xmlns="http://www.w3.org/2000/svg" xmlns:xlink="http://www.w3.org/1999/xlink" width="30px" height="30px" preserveAspectRatio="xMidYMid meet" viewBox="0 0 24 24" style="-ms-transform: rotate(360deg); -webkit-transform: rotate(360deg); transform: rotate(360deg);"><path d="M4 10v10h12V10H4zm2-2V4a2 2 0 0 1 2-2h12a2 2 0 0 1 2 2v10a2 2 0 0 1-2 2h-2v4a2 2 0 0 1-2 2H4a2 2 0 0 1-2-2V10a2 2 0 0 1 2-2h2zm2 0h8a2 2 0 0 1 2 2v4h2V4H8v4zm0 9a3 3 0 1 1 0-6a3 3 0 0 1 0 6zm0-2a1 1 0 1 0 0-2a1 1 0 0 0 0 2zm1-7a3 3 0 1 1 6 0h-2a1 1 0 0 0-2 0H9zm1.864 13.518l-1.728-1.007l2.725-4.673a3 3 0 0 1 4.8-.52l1.088 1.184l-1.473 1.354l-1.087-1.184a1 1 0 0 0-1.6.174l-2.725 4.672zm6.512-12.97a2.994 2.994 0 0 1 3.285.77l1.088 1.184l-1.473 1.354l-1.087-1.184A1 1 0 0 0 18 10.457V10c0-.571-.24-1.087-.624-1.451z" fill="#232323"/><rect x="0" y="0" width="24" height="24" fill="rgba(0, 0, 0, 0)" /></svg>